<svg display="none" xmlns="http://www.w3.org/2000/svg">

  <symbol id="search" viewBox="0 0 32 32">
    <path 
      d="M28.591 27.273l-7.263-7.264c1.46-1.756 2.339-4.010 2.339-6.471 0-5.595-4.535-10.129-10.129-10.129-5.594 0-10.129 4.535-10.129 10.129 0 5.594 4.536 10.129 10.129 10.129 2.462 0 4.716-0.879 6.471-2.339l7.263 7.264 1.319-1.319zM4.475 13.538c0-4.997 4.065-9.063 9.063-9.063 4.997 0 9.063 4.066 9.063 9.063s-4.066 9.063-9.063 9.063c-4.998 0-9.063-4.066-9.063-9.063z">
    </path>
  </symbol>

  <symbol id="scroll" viewBox="0 0 40 40">
    <path fill-rule="evenodd"
      d="M4.125,4.651 L0.750,1.276 L1.594,0.432 L7.500,6.339 L13.406,0.362 L14.250,1.206 L7.500,8.026 L6.656,7.183 L4.125,4.651 Z" />
  </symbol>

  <symbol id="check" viewBox="0 0 32 32">
  <path
    d="M16 2.672c-7.361 0-13.328 5.967-13.328 13.328s5.968 13.328 13.328 13.328c7.361 0 13.328-5.967 13.328-13.328s-5.967-13.328-13.328-13.328zM16 28.262c-6.761 0-12.262-5.501-12.262-12.262s5.5-12.262 12.262-12.262c6.761 0 12.262 5.501 12.262 12.262s-5.5 12.262-12.262 12.262z"
    fill="#ff6363"></path>
  <path
    d="M22.667 11.241l-8.559 8.299-2.998-2.998c-0.312-0.312-0.818-0.312-1.131 0s-0.312 0.818 0 1.131l3.555 3.555c0.156 0.156 0.361 0.234 0.565 0.234 0.2 0 0.401-0.075 0.556-0.225l9.124-8.848c0.317-0.308 0.325-0.814 0.018-1.131-0.309-0.318-0.814-0.325-1.131-0.018z"
    fill="#ff6363"></path>
  </symbol>

  <symbol id="like" viewBox="0 0 32 32">
     <path
      d="M27.275 15.638c0-1.288-1.020-2.282-2.374-2.282h-8.536c0.545-1.265 1.524-3.919 1.524-6.659 0-3.128-1.569-3.784-2.886-3.784-0.816 0-1.996 0.619-1.996 1.737 0 0.472-0.075 4.671-2.639 6.822-2.732 2.292-3.509 2.891-5.005 2.891-1.746 0-4.847 0.038-4.847 0.038l-0.517 0.007v12.206h5.712c0.371 0 1.483 0.496 2.466 0.932 1.622 0.722 3.459 1.541 4.696 1.541l8.25-0.003c1.343 0 2.436-1.056 2.436-2.354 0-0.529-0.189-1.012-0.494-1.405 0.984-0.282 1.711-1.18 1.711-2.254 0-0.539-0.19-1.031-0.496-1.429 0.968-0.309 1.677-1.207 1.677-2.277 0-0.538-0.184-1.031-0.485-1.431 1.031-0.258 1.801-1.185 1.801-2.295zM24.901 16.962h-1.822v1.049h0.477c0.746 0 1.353 0.607 1.353 1.353s-0.608 1.353-1.353 1.353h-1.526v1.049h0.394c0.719 0 1.304 0.585 1.304 1.305s-0.585 1.305-1.304 1.305h-1.443v1.049h0.143c0.764 0 1.387 0.586 1.387 1.305 0 0.72-0.623 1.305-1.387 1.305h-1.34v0.003h-6.91c-1.014 0-2.819-0.804-4.27-1.45-1.425-0.634-2.326-1.023-2.892-1.023h-4.663v-10.121c0.955-0.011 3.013-0.032 4.315-0.032 1.94 0 2.959-0.854 5.679-3.136 2.868-2.406 3.014-6.774 3.014-7.626 0-0.428 0.657-0.688 0.947-0.688 0.549 0 1.837 0 1.837 2.735 0 3.456-1.745 6.91-1.762 6.945l-0.39 0.763h6.426c0.018 0.013 0.030 0 0.030 0h3.757c0.767 0 1.325 0.532 1.325 1.233-0 0.73-0.594 1.324-1.325 1.324z"
      fill="#4f6adf"></path>
  </symbol>

  <symbol id="facebook" viewBox="0 0 25 25">
   <path fill-rule="evenodd"
    d="M1.694,14.242 L4.640,14.242 L4.640,7.184 L6.626,7.184 L6.884,4.689 L4.640,4.689 L4.640,3.222 C4.640,2.674 5.007,2.545 5.265,2.545 L6.847,2.545 L6.847,0.123 L4.666,0.115 C2.245,0.115 1.694,1.922 1.694,3.076 L1.694,4.689 L0.295,4.689 L0.295,7.184 L1.694,7.184 L1.694,14.242 Z" />
  </symbol>
  
  <symbol id="twitter" viewBox="0 0 25 25">
    <path fill-rule="evenodd"
      d="M0.833,10.164 C2.120,10.986 3.647,11.465 5.292,11.465 C10.642,11.465 13.569,7.049 13.569,3.218 C13.569,3.094 13.566,2.968 13.559,2.844 C14.130,2.435 14.622,1.925 15.012,1.343 C14.490,1.576 13.930,1.730 13.341,1.799 C13.942,1.443 14.401,0.873 14.620,0.197 C14.058,0.529 13.434,0.769 12.772,0.900 C12.243,0.338 11.485,-0.014 10.649,-0.014 C9.042,-0.014 7.741,1.283 7.741,2.883 C7.741,3.109 7.766,3.330 7.815,3.543 C5.398,3.421 3.253,2.269 1.819,0.515 C1.569,0.945 1.426,1.441 1.426,1.972 C1.426,2.978 1.939,3.865 2.720,4.384 C2.242,4.371 1.794,4.240 1.401,4.023 L1.401,4.058 C1.401,5.462 2.405,6.635 3.735,6.900 C3.492,6.968 3.234,7.002 2.969,7.002 C2.781,7.002 2.599,6.984 2.422,6.951 C2.792,8.103 3.866,8.941 5.139,8.963 C4.143,9.740 2.891,10.203 1.526,10.203 C1.291,10.203 1.061,10.191 0.833,10.164 Z" />
  </symbol>

  <symbol id="linkedin" viewBox="0 0 555 555">
   <path fill="#5474fd" d="M173.5,508.7c0-2.4,0-4.7,0-7c0-107.7,0-215.3,0-323c0-3-0.2-5.4,4.2-5.4c31.8,0.2,63.7,0.1,95.5,0.1   c0.8,0,1.6,0.2,2.9,0.4c0,14,0,27.8,0,41.7c0.4,0.1,0.7,0.3,1.1,0.4c4-5.2,7.8-10.6,12-15.7c12.2-15,27.5-26,45.5-32.6   c9.8-3.6,20.5-5.8,30.8-6.3c14.2-0.6,28.7-0.4,42.7,2c23,3.9,43.3,14.1,60.1,30.8c15.9,15.7,26.4,34.6,32.1,55.9   c3,11.3,4.9,22.9,6.7,34.4c1.2,8,1.8,16.2,1.8,24.2c0.1,65,0.1,130,0.1,195c0,1.6-0.1,3.2-0.2,5.3c-1.9,0-3.5,0-5.1,0   c-30.7,0-61.3-0.1-92,0.1c-5.1,0-6-1.7-6-6.3c0.1-59.8,0.3-119.7-0.1-179.5c-0.1-10.5-1.1-21.4-3.8-31.5   c-4.9-17.7-16.1-30.5-33.9-37c-15-5.5-30.2-6.5-45.6-2.6c-17,4.3-28.7,15.6-37.5,30.5c-6.8,11.5-8.1,24.2-8.2,36.9   c-0.4,60.7-0.2,121.3-0.2,182c0,2.3,0,4.6,0,7.1C241.9,508.7,208,508.7,173.5,508.7z"/>
   <path fill="#5474fd" d="M109.1,342.6c0,53.3-0.1,106.6,0.1,159.9c0,4.8-1,6.6-6.3,6.5c-30.5-0.3-61-0.3-91.5,0c-5,0-6.1-1.7-6.1-6.3   c0.1-107.1,0.1-214.3,0-321.4c0-4.3,1.2-5.8,5.6-5.8c30.8,0.2,61.6,0.2,92.5,0c4.8,0,5.7,1.8,5.7,6.1   C109.1,235.3,109.1,289,109.1,342.6z"/>
   <path fill="#5474fd" d="M56.1,4.8C89,4,108.7,27.9,108.8,57.2c0.1,30-20.9,52.4-53.9,52.3c-30.7,0-52.4-22-52.3-53.1C2.7,27.3,23.8,3.8,56.1,4.8z"/>
  </symbol>

  <symbol id="youtube" viewBox="0 0 555 555">
  <path d="M175.329,287.017C175.322,287.017,175.329,287.017,175.329,287.017c-38.053,0-79.481-1.202-123.125-3.554
		c-25.784-1.414-45.785-21.292-48.632-48.349c-4.762-45.2-4.762-90.83,0-135.625c2.841-26.832,22.815-46.71,48.574-48.33
		c75.271-4.737,152.721-4.737,230.312,0c26.061,1.581,45.586,20.99,48.6,48.304c4.749,43.246,4.756,88.87,0.006,135.632
		c-2.744,27.038-22.25,46.472-48.535,48.356C249.45,285.815,213.382,287.017,175.329,287.017z M166.428,60.452
		c-37.931,0-76.113,1.195-113.485,3.541c-19.685,1.234-34.39,16.048-36.594,36.851c-4.666,43.895-4.666,88.613,0,132.926
		c2.204,20.971,16.89,35.778,36.543,36.858c43.413,2.339,84.609,3.535,122.425,3.535c37.751,0,73.51-1.189,106.287-3.528
		c19.833-1.427,34.57-16.228,36.659-36.839c4.666-45.862,4.666-90.58,0.006-132.926c-2.294-20.868-17.005-35.688-36.594-36.877
		C243.145,61.641,204.365,60.452,166.428,60.452z M134.576,121.783v88.208l84.706-43.805L134.576,121.783z"/>
  </symbol>

<symbol id="pinterest" viewBox="0 0 555 555">
  <path d="M236.3,335.8c-1.9,7.7-3.6,14.5-5.3,21.3c-1.9,7.8-3.7,15.6-5.5,23.4c-2.2,9.5-3.9,19.1-6.7,28.3c-4,13.1-8,26.2-13.4,38.7   c-5,11.5-11.6,22.4-17.9,33.3c-5.2,8.9-11.1,17.5-16.9,26.1c-0.9,1.3-3.4,2.6-4.5,2.2c-1.4-0.5-3-2.7-3.2-4.3   c-3.8-30.3-5.8-60.8-1.8-91.2c1.6-12.3,4.9-24.3,7.4-36.5c1.6-8,3.2-16.1,4.9-24.2c2.1-9.9,4.3-19.9,6.5-29.8   c3.2-14.6,6.5-29.1,9.8-43.7c2.7-11.7,5.3-23.5,8.2-35.2c1.4-5.6-1.5-10.2-2.8-15.2c-4.3-17.2-7-34.3-3.8-52.2   c2.3-12.9,5.7-25.2,13-36.1c9.5-14.2,22.3-23.5,40.4-22.5c15.5,0.9,26.3,11,30.3,25.3c4.5,15.8,2.5,31.6-1.6,47.2   c-4.4,17-9.1,33.8-13.4,50.8c-2.7,10.6-6.6,21.2-7.2,32c-0.9,16.1,5.4,30.2,19.5,39.3c11.2,7.2,23.1,8.6,36.3,5.4   c17.5-4.3,29.6-15.2,39.8-29c12.1-16.3,18.9-34.8,24.2-54.3c6.5-24.2,9-48.6,8.5-73.5c-0.4-23-6.5-44.3-19.5-63.3   c-9.8-14.2-22.7-24.8-38.7-31.8c-10.2-4.5-20.3-8.4-31.5-8.9c-12.1-0.5-24.3-2.6-36.2-1.4c-35.9,3.9-65.6,19.7-88,48.5   c-8.9,11.5-16,24-20.7,37.5c-7.2,20.8-10.4,42.4-8.3,64.5c1.5,15.5,6,30.4,16.2,42.4c7,8.2,5.7,16.2,3.3,25   c-1.3,4.6-2.5,9.2-3.5,13.9c-1.7,8.4-6.4,12.7-16.1,8c-19.4-9.4-31.7-24.9-40.3-44.1c-12-26.9-14.1-55.3-11.3-83.9   c3.3-32.4,15.8-61.7,35-88c13.9-19,31.2-34.4,51.4-46.5c15.8-9.5,32.6-16.2,50.4-20.8c23.1-6,46.5-7.8,70-5.9   c17.6,1.4,34.6,5.6,51.1,12.4c28.5,11.8,51.8,29.9,70,54.6c10.8,14.7,19.1,30.8,24.5,48.4c3.2,10.4,5.9,20.8,6.2,31.7   c0.4,12.3,1.8,24.6,1.1,36.7c-0.7,12.9-3.3,25.8-5.3,38.6c-3.3,21.2-10.4,41.2-19.9,60.3c-8.2,16.4-18.5,31.3-31.8,44.2   c-13.4,13-28.8,22.7-46.4,29.1c-16.7,6.1-33.8,8.3-51.2,6.2c-20.7-2.6-38.2-11.9-51.3-28.7C239.4,339.1,238,337.7,236.3,335.8z"/>
</symbol>

</svg>
